<svg id="Layer_1" data-name="Layer 1" xmlns="http://www.w3.org/2000/svg" viewBox="0 0 153 190.5"><defs><style>.cls-1{fill:#231f20;}.cls-2{fill:#f2c083;}.cls-3{fill:#ffd8a4;}.cls-4{fill:#900141;}.cls-5{fill:#26a2d6;}.cls-6{fill:#273746;}.cls-7{fill:#e95532;}.cls-8{fill:#f28696;}</style></defs><title>JumpJumpBoy</title><path class="cls-1" d="M117.4,163.6c-1.8,1.2-8,5.3-4.7,8s6.4,0.4,8.5-.4a6.3,6.3,0,0,0,3.2-2c0.9-1.4.5-3-1.3-3.1s-4.4,2.5-5.6,3.8-4.9,6.9-.7,7.4,6.4-1.1,8.8-2.7c0.9-.5,5.9-3.9,3.3-4.6s-5.3,2.5-6.4,3.7-6.3,8.7-.4,8.7a12.9,12.9,0,0,0,9-4.2h-0.5c-2.9,3-12.9,6.6-10.8.1a13.2,13.2,0,0,1,2.5-4,17.4,17.4,0,0,1,2.5-2.4q6.7-2.3,2.6,1a16.4,16.4,0,0,1-2.7,2q-4.5,3.3-9.4.2c-0.3-2,1.9-4.5,3.1-5.8s6.6-4.8,5.6-.4-14,5.3-11.2-.9c0.8-1.9,3.3-3.4,5-4.5s-0.3-.1-0.4,0h0Z"/><path class="cls-1" d="M47.1,187.6c2.1,1.4,5.7,3.9,8.3,2.4s-0.2-6.5-1.8-8.3-3.1-3.3-5.2-2.5c-4.1,1.8,2.5,5,4,5.5s5.5,1.7,7.3.1-3.2-7.8-5.3-9.2-4.4-3.1-5.8-2,5,4.9,5.8,5.1,6.5,2.1,8.3.1c3.2-3.6-4.5-8.7-7.1-9.7a0.9,0.9,0,0,0-.5.2,12.6,12.6,0,0,1,6.2,4.6c0.5,0.7,1.4,1.9,1.4,2.7-0.2,3.8-4.3,2.7-6.3,2.2s-7.5-2.5-7.1-4.2,5.6,1.7,6.2,2.2a18.3,18.3,0,0,1,2.9,3.1c1.5,2.1,1.7,1.9-1,3.6s-3.1,2-5,.6l-1.4-.7-1.8-1q-2.1-1,1.8-2.7c1.5-.1,3.9,4.4,4.5,5.7s2,5.3-4.7,3.6a11.5,11.5,0,0,1-3.2-1.9,0.6,0.6,0,0,0-.5.2h0Z"/><circle class="cls-2" cx="15.7" cy="86.5" r="15.2" transform="translate(-15.7 4.4) rotate(-10.7)"/><circle class="cls-2" cx="128.2" cy="65.4" r="15.2" transform="translate(-9.9 24.8) rotate(-10.7)"/><path class="cls-3" d="M59.8,115.6s-15.5,10.5-44-5.8c0,0,6.5-1.8,5.6-5.2s-6.6.7-6.6,0.7,0-7.9-2.2-8.8-1,7.8-1,7.8-4.7-7.1-6.6-5.9,3.4,7.5,3.4,7.5-8.4-2-8.3.3,7.4,3.4,7.4,3.4-6.3,4.4-3.7,5.7,7.5-3.5,7.5-3.5,35,22.8,54,7.1Z"/><path class="cls-4" d="M46.1,115.9l2.7,12.2s11.6-.9,16.4-9.2l-5.4-3.3S52.5,117.7,46.1,115.9Z"/><path class="cls-3" d="M97.4,107.5s17.6,6.3,41.2-16.6c0,0-6.7-.1-6.7-3.7s6.5-.9,6.5-0.9-2-7.7,0-9.1,2.9,7.3,2.9,7.3,2.8-8,4.9-7.3-1.4,8.1-1.4,8.1,7.6-4,8.1-1.8-6.4,5.2-6.4,5.2,7.2,2.7,5,4.6-8.1-1.6-8.1-1.6S115.3,122.5,93,112.1Z"/><path class="cls-4" d="M110.8,104.4l0.4,12.5s-11.4,2-18.2-4.8l4.4-4.6S105,107.7,110.8,104.4Z"/><path class="cls-4" d="M101.7,129.8L98.3,108l-39.7,6.1L62,135.9l0.2,0.9,39.6-6.1C101.8,130.4,101.8,130.1,101.7,129.8Z"/><path class="cls-5" d="M62.2,136.8a15.2,15.2,0,0,0,17.1,11.8l9.7-1.5a15.2,15.2,0,0,0,12.8-16.4Z"/><polygon class="cls-5" points="66.1 174.9 62.1 172.7 73.7 142.5 77.7 144.7 66.1 174.9"/><path class="cls-6" d="M56.6,169.9h9.9a0,0,0,0,1,0,0v4.7a0,0,0,0,1,0,0H51.9a0,0,0,0,1,0,0v0A4.7,4.7,0,0,1,56.6,169.9Z" transform="translate(91.2 -7.1) rotate(29.1)"/><polygon class="cls-5" points="108.6 168.8 111.9 165.6 92.3 139.8 89.1 143 108.6 168.8"/><path class="cls-6" d="M107.2,162.1h14.5a0,0,0,0,1,0,0v4.7a0,0,0,0,1,0,0h-9.9a4.7,4.7,0,0,1-4.7-4.7v0A0,0,0,0,1,107.2,162.1Z" transform="translate(311.8 199.2) rotate(134.9)"/><path class="cls-6" d="M29.9,103.2h0Z"/><path class="cls-6" d="M122.5,88.9h0Z"/><rect class="cls-3" x="13.1" y="20" width="114.2" height="93.9" rx="47" ry="47" transform="translate(-11.2 14.1) rotate(-10.7)"/><path class="cls-6" d="M108.7,14.2l2.2-3.7-5,.3L106.2,5l-4.9,5.1c-22.1-20.4-66-3.6-66-3.6l7.5,4.4A68.1,68.1,0,0,0,11.2,30.3l5.4-.4A46.1,46.1,0,0,0,7.9,66.5l1.5,8.1a46.1,46.1,0,0,0,20.2,30.2L19,57.2,76.6,34.9l-1.8,7.2L110.6,31l11.2,56.5a46.1,46.1,0,0,0,7.9-35.5l-1.5-8.1A46.1,46.1,0,0,0,108.7,14.2Z"/><circle class="cls-6" cx="58.1" cy="65.4" r="5.1" transform="translate(-11.1 11.9) rotate(-10.7)"/><circle class="cls-6" cx="90.8" cy="59.3" r="5.1" transform="translate(-9.4 17.8) rotate(-10.7)"/><path class="cls-6" d="M83.5,74.3a10.4,10.4,0,0,1-6.1,3.6,10.7,10.7,0,0,1-11.4-5.8,11,11,0,0,1-1-2.9l20.9-3.9A11,11,0,0,1,83.5,74.3Z"/><path class="cls-7" d="M83.5,74.3a10.4,10.4,0,0,1-6.1,3.6,10.7,10.7,0,0,1-11.4-5.8C70.1,70.9,77.1,70,83.5,74.3Z"/><circle class="cls-8" cx="46.2" cy="86.5" r="8.1" transform="translate(-15.2 10) rotate(-10.7)"/><circle class="cls-8" cx="109.6" cy="74.6" r="8.1" transform="translate(-11.9 21.5) rotate(-10.7)"/><polygon class="cls-6" points="49.4 53.7 61.1 46.5 58 44.4 47.6 52.3 49.4 53.7"/><polygon class="cls-6" points="97.4 46.3 84 43 86.3 40 98.6 44.4 97.4 46.3"/></svg>